<svg xmlns="http://www.w3.org/2000/svg" width="128" height="128" viewBox="0 0 128 128" fill="none">
  <path
     d="M 10.126127,98.049934 C 8.7399178,97.27763 7.8806876,95.815327 7.8806876,94.228447 V 34.380766 c 0,-1.557685 0.8283169,-2.997793 2.1747614,-3.781062 L 61.638059,0.59323088 c 1.36058,-0.79145879 3.041389,-0.79093036 4.401441,0.001321 L 81.869468,9.8159518 c 0.578369,0.3368752 0.579558,1.1719292 0.0022,1.5106542 L 31.717323,40.746917 c -2.6773,1.570631 -4.322044,4.442262 -4.322044,7.546271 v 33.418161 c 0,1.008909 1.09108,1.640385 1.965899,1.137846 l 14.852501,-8.532324 c 0.874819,-0.502539 1.965899,0.128937 1.965899,1.137978 v 17.340226 c 0,1.552401 -0.822769,2.988546 -2.161947,3.773664 l -15.651755,9.176221 c -1.336536,0.78366 -2.987885,0.80176 -4.341331,0.0478 z"
     fill="currentColor"
     id="path4"
     style="stroke-width:1.32108" />
  <path
     d="m 54.081483,51.750189 c 0,-1.54606 0.816163,-2.977317 2.146623,-3.764681 l 43.04183,-25.469622 c 1.363884,-0.807047 3.057504,-0.813388 4.427204,-0.01651 l 15.98704,9.300136 c 0.57996,0.337139 0.57996,1.17444 0.001,1.512108 L 77.940577,57.633088 c -2.689982,1.567329 -4.344502,4.446094 -4.344502,7.55935 v 33.20811 c 0,1.011551 1.0961,1.642762 1.970919,1.135072 L 95.934738,87.716977 c 2.692493,-1.562308 4.351902,-4.43777 4.357712,-7.550762 l 0.0207,-11.05453 c 0.003,-1.5561 0.83215,-2.993434 2.17793,-3.774853 l 16.02655,-9.304628 c 0.58392,-0.338725 1.31447,0.0827 1.31447,0.757375 l -0.033,37.134491 c -10e-4,1.56363 -0.83757,3.007438 -2.193,3.787403 L 65.995376,127.41648 c -1.331913,0.76754 -2.968466,0.77811 -4.310947,0.0304 l -5.357507,-2.98432 c -1.386076,-0.77283 -2.245439,-2.23526 -2.245439,-3.82188 z"
     fill="currentColor"
     id="path6"
     style="stroke-width:1.32108" />
</svg>
