<svg xmlns="http://www.w3.org/2000/svg" width="128" height="128" viewBox="0 0 128 128" fill="none">
  <path d="M22.8472 89.7828C21.7979 89.1982 21.1475 88.0913 21.1475 86.8901V41.588C21.1475 40.4089 21.7745 39.3188 22.7937 38.7259L61.8395 16.0123C62.8694 15.4132 64.1417 15.4136 65.1712 16.0133L77.1538 22.9935C77.5916 23.2485 77.5925 23.8806 77.1556 24.137L39.1908 46.4069C37.1642 47.5958 35.9192 49.7695 35.9192 52.1191V77.4152C35.9192 78.1789 36.7451 78.6569 37.4074 78.2765L48.65 71.8179C49.3122 71.4375 50.1381 71.9155 50.1381 72.6793V85.8051C50.1381 86.9802 49.5153 88.0673 48.5016 88.6616L36.6539 95.6076C35.6422 96.2008 34.3922 96.2145 33.3677 95.6438L22.8472 89.7828Z" fill="black"/>
  <path d="M56.1195 54.7359C56.1195 53.5656 56.7373 52.4822 57.7444 51.8862L90.3252 32.6068C91.3576 31.9959 92.6396 31.9911 93.6765 32.5943L105.778 39.6341C106.217 39.8893 106.217 40.5231 105.779 40.7787L74.1798 59.189C72.1436 60.3754 70.8912 62.5545 70.8912 64.9111V90.0482C70.8912 90.8139 71.7209 91.2917 72.3831 90.9074L87.8006 81.9612C89.8387 80.7786 91.0948 78.602 91.0992 76.2456L91.1149 67.8778C91.1171 66.6999 91.7449 65.6119 92.7635 65.0204L104.895 57.9772C105.337 57.7208 105.89 58.0398 105.89 58.5505L105.865 86.6597C105.864 87.8433 105.231 88.9362 104.205 89.5266L65.1378 112.012C64.1296 112.593 62.8908 112.601 61.8746 112.035L57.8192 109.776C56.77 109.191 56.1195 108.084 56.1195 106.883V54.7359Z" fill="black"/>
</svg>
